<svg xmlns="http://www.w3.org/2000/svg" xmlns:xlink="http://www.w3.org/1999/xlink" width="115.076" height="116.064" viewBox="0 0 115.076 116.064">
  <defs>
    <clipPath id="clip-path">
      <path id="Path_1" data-name="Path 1" d="M188.46,221.492c-17.591-3.314-58.666-19.024-67.247-21.012-10.561-2.444,11.574-10.631,57.561-9.564s45.858,4.183,45.858,4.183c-4.329,4.2-19.185,18.719-29.173,24.476C192.13,221.5,190.8,221.932,188.46,221.492Z" transform="translate(-118.616 -190.82)" fill="none" clip-rule="evenodd"/>
    </clipPath>
    <linearGradient id="linear-gradient" x1="0.5" y1="0.963" x2="0.5" y2="0.061" gradientUnits="objectBoundingBox">
      <stop offset="0" stop-color="#808386"/>
      <stop offset="0.37" stop-color="#adb0b2"/>
      <stop offset="0.68" stop-color="#e0e1e2"/>
      <stop offset="0.87" stop-color="#fff"/>
      <stop offset="1" stop-color="#fff"/>
    </linearGradient>
    <clipPath id="clip-path-2">
      <path id="Path_3" data-name="Path 3" d="M167.363,146.067l60.82,34.788a8.781,8.781,0,0,1,3.253,11.949l-34.784,60.82a8.788,8.788,0,0,1-11.951,3.255l-60.82-34.788a8.783,8.783,0,0,1-3.253-11.949l34.786-60.82A8.783,8.783,0,0,1,167.363,146.067Z" transform="translate(-119.479 -144.919)" fill="none" clip-rule="evenodd"/>
    </clipPath>
    <linearGradient id="linear-gradient-2" x1="0.5" y1="0.979" x2="0.5" y2="0.021" gradientUnits="objectBoundingBox">
      <stop offset="0" stop-color="#ef5613"/>
      <stop offset="1" stop-color="#fff"/>
    </linearGradient>
  </defs>
  <g id="login-logo" transform="translate(917.421 -111.58)">
    <g id="Group_2" data-name="Group 2" transform="translate(-917.421 196.815)">
      <g id="Group_1" data-name="Group 1" clip-path="url(#clip-path)">
        <rect id="Rectangle_1" data-name="Rectangle 1" width="114.112" height="32.083" transform="translate(-7.965 -0.971)" fill="url(#linear-gradient)"/>
      </g>
    </g>
    <g id="Group_4" data-name="Group 4" transform="translate(-915.865 113.95)">
      <g id="Group_3" data-name="Group 3" clip-path="url(#clip-path-2)">
        <rect id="Rectangle_2" data-name="Rectangle 2" width="115.592" height="115.591" transform="translate(-1.242 -1.242)" fill="url(#linear-gradient-2)"/>
      </g>
    </g>
    <path id="Path_4" data-name="Path 4" d="M122.795,201.646q46.36-37.112,105.082-28.639l-33.9,59.266a8.788,8.788,0,0,1-11.951,3.255Z" transform="translate(-1032.673 -9.618)" fill="#ec4115" fill-rule="evenodd"/>
    <path id="Path_5" data-name="Path 5" d="M167.351,146.061l60.82,34.786a8.784,8.784,0,0,1,3.253,11.951l-34.784,60.82a8.786,8.786,0,0,1-11.951,3.255l-60.82-34.786a8.786,8.786,0,0,1-3.255-11.951L155.4,149.318A8.785,8.785,0,0,1,167.351,146.061Z" transform="translate(-1035.353 -30.973)" fill="none" stroke="#ea3516" stroke-miterlimit="2.613" stroke-width="0.825"/>
    <path id="Path_6" data-name="Path 6" d="M186.535,192.556c0-3.186-.547-5.5-1.628-6.938s-2.809-2.161-5.152-2.161a11.049,11.049,0,0,0-3.049.45,12.781,12.781,0,0,0-3,1.3v16.473a8.443,8.443,0,0,0,2.235.527,23.275,23.275,0,0,0,2.363.119q4.154,0,6.2-2.437c1.349-1.623,2.035-4.071,2.035-7.337m10.792-.2a21.079,21.079,0,0,1-1.24,7.376,16.342,16.342,0,0,1-3.248,5.484,14.089,14.089,0,0,1-4.735,3.432,13.9,13.9,0,0,1-5.669,1.166,16.48,16.48,0,0,1-4.748-.6,22.908,22.908,0,0,1-3.981-1.673v13.646H163.233V176.431h10.474v3.414a25.362,25.362,0,0,1,4.925-3.125,13.4,13.4,0,0,1,5.809-1.2,11.211,11.211,0,0,1,9.49,4.49Q197.327,184.507,197.327,192.357Zm-37.237-5.923h-.933a8.822,8.822,0,0,0-2.156-.348q-1.473-.119-2.471-.119a24.363,24.363,0,0,0-3.952.289,22.806,22.806,0,0,0-3.694.995v21.929H136.41V176.431h10.474v4.807a21.964,21.964,0,0,1,6.017-3.952,13.425,13.425,0,0,1,4.715-.977q.552,0,1.253.031c.466.02.872.049,1.22.09Z" transform="translate(-1021.709 -6.322)" fill="#fff"/>
    <path id="Rectangle_3" data-name="Rectangle 3" d="M2.564,0H7.721a2.565,2.565,0,0,1,2.565,2.565V20.32a2.563,2.563,0,0,1-2.563,2.563H2.564A2.564,2.564,0,0,1,0,20.319V2.564A2.564,2.564,0,0,1,2.564,0Z" transform="translate(-901.032 143.648) rotate(-59.998)" fill="#fff"/>
    <path id="Rectangle_4" data-name="Rectangle 4" d="M2.564,0H7.721a2.565,2.565,0,0,1,2.565,2.565V20.32a2.563,2.563,0,0,1-2.563,2.563H2.564A2.564,2.564,0,0,1,0,20.319V2.564A2.564,2.564,0,0,1,2.564,0Z" transform="translate(-901.032 143.648) rotate(-59.998)" fill="none" stroke="#ea3516" stroke-miterlimit="2.613" stroke-width="0.825"/>
    <path id="Path_8" data-name="Path 8" d="M158.907,144.478l.906.524a4.684,4.684,0,0,1,1.771,6.36l-8.976,15.543a4.679,4.679,0,0,1-6.392,1.646l-.906-.524a4.681,4.681,0,0,1-1.771-6.358l8.976-15.543A4.683,4.683,0,0,1,158.907,144.478Z" transform="translate(-1016.455 -31.837)" fill="#fff" fill-rule="evenodd"/>
    <path id="Path_9" data-name="Path 9" d="M158.907,144.478l.906.524a4.684,4.684,0,0,1,1.771,6.36l-8.976,15.543a4.679,4.679,0,0,1-6.392,1.646l-.906-.524a4.681,4.681,0,0,1-1.771-6.358l8.976-15.543A4.683,4.683,0,0,1,158.907,144.478Z" transform="translate(-1016.455 -31.837)" fill="none" stroke="#ea3516" stroke-miterlimit="2.613" stroke-width="0.825"/>
    <path id="Path_10" data-name="Path 10" d="M163.973,147.4l.906.525a4.682,4.682,0,0,1,1.771,6.36l-8.974,15.542a4.682,4.682,0,0,1-6.392,1.648l-.908-.524a4.684,4.684,0,0,1-1.771-6.36l8.976-15.543A4.681,4.681,0,0,1,163.973,147.4Z" transform="translate(-1012.376 -29.482)" fill="#fff" fill-rule="evenodd"/>
    <path id="Path_11" data-name="Path 11" d="M163.973,147.4l.906.525a4.682,4.682,0,0,1,1.771,6.36l-8.974,15.542a4.682,4.682,0,0,1-6.392,1.648l-.908-.524a4.684,4.684,0,0,1-1.771-6.36l8.976-15.543A4.681,4.681,0,0,1,163.973,147.4Z" transform="translate(-1012.376 -29.482)" fill="none" stroke="#ea3516" stroke-miterlimit="2.613" stroke-width="0.825"/>
    <path id="Path_12" data-name="Path 12" d="M169.039,150.329l.906.525a4.677,4.677,0,0,1,1.769,6.358l-8.972,15.543a4.681,4.681,0,0,1-6.392,1.646l-.908-.522a4.685,4.685,0,0,1-1.769-6.362l8.974-15.542A4.681,4.681,0,0,1,169.039,150.329Z" transform="translate(-1008.295 -27.126)" fill="#fff" fill-rule="evenodd"/>
    <path id="Path_13" data-name="Path 13" d="M169.039,150.329l.906.525a4.677,4.677,0,0,1,1.769,6.358l-8.972,15.543a4.681,4.681,0,0,1-6.392,1.646l-.908-.522a4.685,4.685,0,0,1-1.769-6.362l8.974-15.542A4.681,4.681,0,0,1,169.039,150.329Z" transform="translate(-1008.295 -27.126)" fill="none" stroke="#ea3516" stroke-miterlimit="2.613" stroke-width="0.825"/>
    <path id="Path_14" data-name="Path 14" d="M173.391,153.289l.906.524c2.246,1.3,3.175,3.925,2.069,5.842l-7.811,13.532c-1.107,1.915-3.849,2.424-6.093,1.128l-.908-.523c-2.244-1.3-3.175-3.925-2.069-5.842l7.811-13.532C168.4,152.5,171.147,151.994,173.391,153.289Z" transform="translate(-1003.502 -24.806)" fill="#fff" fill-rule="evenodd"/>
    <path id="Path_15" data-name="Path 15" d="M173.391,153.289l.906.524c2.246,1.3,3.175,3.925,2.069,5.842l-7.811,13.532c-1.107,1.915-3.849,2.424-6.093,1.128l-.908-.523c-2.244-1.3-3.175-3.925-2.069-5.842l7.811-13.532C168.4,152.5,171.147,151.994,173.391,153.289Z" transform="translate(-1003.502 -24.806)" fill="none" stroke="#ea3516" stroke-miterlimit="2.613" stroke-width="0.825"/>
  </g>
</svg>
