<svg xmlns="http://www.w3.org/2000/svg" width="195.001" height="50.322" viewBox="0 0 195.001 50.322">
  <g id="logo" transform="translate(-480.375 -453.036)">
    <circle id="Ellipse_1" data-name="Ellipse 1" cx="25.161" cy="25.161" r="25.161" transform="translate(480.375 453.036)" fill="#f70"/>
    <g id="Ellipse_2" data-name="Ellipse 2" transform="translate(486.816 459.477)">
      <circle id="Ellipse_1-2" data-name="Ellipse 1" cx="18.72" cy="18.72" r="18.72" fill="#f70"/>
      <circle id="Ellipse_2-2" data-name="Ellipse 2" cx="18.317" cy="18.317" r="18.317" transform="translate(0.403 0.403)" fill="none" stroke="#fff" stroke-width="2" stroke-dasharray="5"/>
    </g>
    <path id="Path_1" data-name="Path 1" d="M532.065,483.537a4.127,4.127,0,0,1,.293.838,7.89,7.89,0,0,1,.011,1.194c-.014.558-.156.706-.72.711-1.057.01-2.114,0-3.171,0-.135,0-.27.013-.366.017.294.757.573,1.5.886,2.239.041.093.252.156.385.159.71.015,1.421.006,2.132.008.8,0,.874.072.876.851,0,.4-.009.8,0,1.2.014.479-.2.7-.685.692-.864-.012-1.731,0-2.611,0-.737,3.652-3.263,5.2-6.728,5.731.814.917,1.606,1.778,2.363,2.669,1.715,2.019,3.407,4.059,5.124,6.079a.633.633,0,0,1,.072.891.644.644,0,0,1-.149.128h-3.642c-.142-.149-.291-.292-.426-.448-2.27-2.619-4.516-5.26-6.815-7.853-1.4-1.58-1.439-1.547-1.406-3.637.01-.6.165-.751.784-.754.659,0,1.319.02,1.977-.006a6.359,6.359,0,0,0,3.686-1.055,3.116,3.116,0,0,0,1.171-1.744h-6.783c-.725,0-.832-.112-.834-.849v-1.04c0-.758.082-.843.833-.846q2.965,0,5.93,0h.537l.092-.2a5.9,5.9,0,0,0-1.2-1,6.721,6.721,0,0,0-2.067-.615c-1.064-.117-2.146-.081-3.221-.1-.816-.013-.907-.093-.909-.886,0-.537-.034-1.078.014-1.611a2.81,2.81,0,0,1,.31-.765Z" transform="translate(-19.204 -15.788)" fill="#fff"/>
    <g id="EarnIn" transform="translate(537.833 461.679)" style="isolation: isolate">
      <g id="Group_1" data-name="Group 1" transform="translate(0 0)" style="isolation: isolate">
        <path id="Path_1-2" data-name="Path 1" d="M622.485,504.5H599.491V470.954h22.994v6.713H606.2v6.714h11.017v6.713H606.2v6.69h16.28Z" transform="translate(-599.491 -470.954)" fill="#fff"/>
        <path id="Path_2" data-name="Path 2" d="M676.921,512.58h-1.544l-2.48-3.439a20.394,20.394,0,0,1-1.929,1.533,14.309,14.309,0,0,1-2.14,1.24,13.1,13.1,0,0,1-2.3.831,9.613,9.613,0,0,1-2.4.3,13.81,13.81,0,0,1-4.971-.889,11.794,11.794,0,0,1-4.07-2.585,12.1,12.1,0,0,1-2.749-4.152,14.639,14.639,0,0,1-1.006-5.591,13.963,13.963,0,0,1,1.006-5.368,12.777,12.777,0,0,1,2.749-4.2,12.4,12.4,0,0,1,4.07-2.725,12.788,12.788,0,0,1,4.971-.971,9.723,9.723,0,0,1,2.409.3,12.492,12.492,0,0,1,2.316.842,14.422,14.422,0,0,1,2.14,1.263,17.745,17.745,0,0,1,1.906,1.568l2.48-2.971h1.544Zm-6.433-12.749a6.638,6.638,0,0,0-.5-2.538,7.306,7.306,0,0,0-1.369-2.176,6.8,6.8,0,0,0-2.024-1.52,5.488,5.488,0,0,0-2.468-.573,6.838,6.838,0,0,0-2.468.444,5.627,5.627,0,0,0-2.011,1.31,6.146,6.146,0,0,0-1.345,2.14,8.881,8.881,0,0,0,0,5.825,6.141,6.141,0,0,0,1.345,2.14,5.62,5.62,0,0,0,2.011,1.31,6.828,6.828,0,0,0,2.468.444,5.488,5.488,0,0,0,2.468-.573,6.793,6.793,0,0,0,2.024-1.52,7.312,7.312,0,0,0,1.369-2.176A6.638,6.638,0,0,0,670.488,499.831Z" transform="translate(-626.325 -479.036)" fill="#fff"/>
        <path id="Path_3" data-name="Path 3" d="M720.855,513.609h-6.386V488.557h1.544l2.106,2.971A11.286,11.286,0,0,1,725.7,488.6h5.638v6.363H725.7a4.841,4.841,0,0,0-1.895.374,4.733,4.733,0,0,0-2.573,2.573,4.837,4.837,0,0,0-.374,1.895Z" transform="translate(-659.007 -480.066)" fill="#fff"/>
        <path id="Path_4" data-name="Path 4" d="M761.977,513.082h-6.386V488.03h1.544l2.106,2.433a11.23,11.23,0,0,1,7.578-2.925,10.819,10.819,0,0,1,4.327.877,11.2,11.2,0,0,1,3.556,2.409,11.389,11.389,0,0,1,2.4,3.579,10.953,10.953,0,0,1,.877,4.363v14.316h-6.386V498.766a4.7,4.7,0,0,0-.374-1.86,4.808,4.808,0,0,0-1.029-1.532,4.858,4.858,0,0,0-1.52-1.029,4.62,4.62,0,0,0-1.848-.374,4.791,4.791,0,0,0-4.468,2.936,4.692,4.692,0,0,0-.374,1.86Z" transform="translate(-680.293 -479.538)" fill="#fff"/>
        <path id="Path_5" data-name="Path 5" d="M819.526,504.5h-6.714V470.954h6.714Z" transform="translate(-709.912 -470.954)" fill="#fff"/>
        <path id="Path_6" data-name="Path 6" d="M844.609,513.082h-6.386V488.03h1.544l2.1,2.433a11.231,11.231,0,0,1,7.579-2.925,10.819,10.819,0,0,1,4.327.877,11.2,11.2,0,0,1,3.556,2.409,11.4,11.4,0,0,1,2.4,3.579,10.964,10.964,0,0,1,.877,4.363v14.316h-6.385V498.766a4.692,4.692,0,0,0-.375-1.86,4.81,4.81,0,0,0-1.029-1.532,4.863,4.863,0,0,0-1.52-1.029,4.618,4.618,0,0,0-1.848-.374,4.842,4.842,0,0,0-1.895.374,4.762,4.762,0,0,0-2.573,2.561,4.692,4.692,0,0,0-.374,1.86Z" transform="translate(-723.066 -479.538)" fill="#fff"/>
      </g>
    </g>
  </g>
</svg>
