<svg xmlns="http://www.w3.org/2000/svg" width="332.846" height="117.057" viewBox="0 0 332.846 117.057">
  <g id="logo" transform="translate(790.911 220.009)">
    <g id="Group_587" data-name="Group 587">
      <g id="Group_8" data-name="Group 8" transform="translate(-393 -300)">
        <path id="Union_2" data-name="Union 2" d="M65.223,113.9,4.4,79.109A8.786,8.786,0,0,1,1.148,67.158L19.821,34.512l-2.745-1.585a2.565,2.565,0,0,1-.939-3.5l2.578-4.466a2.566,2.566,0,0,1,3.5-.939l2.709,1.564L35.934,6.341A8.784,8.784,0,0,1,47.885,3.083l2.706,1.548,1.355-2.346A4.683,4.683,0,0,1,58.34.637l.906.523a4.685,4.685,0,0,1,1.77,6.36l-1.334,2.31.076.044,1.334-2.309a4.681,4.681,0,0,1,6.392-1.648l.906.526A4.68,4.68,0,0,1,70.162,12.8L68.85,15.075l.076.043,1.312-2.273A4.682,4.682,0,0,1,76.631,11.2l.906.526a4.677,4.677,0,0,1,1.769,6.358l-1.291,2.236.076.044,1.589-2.754c1.106-1.915,3.85-2.423,6.095-1.129l.906.524c2.245,1.3,3.175,3.925,2.068,5.842L87.183,25.56,108.7,37.869a8.784,8.784,0,0,1,3.254,11.951l-34.784,60.82a8.782,8.782,0,0,1-7.629,4.4A8.684,8.684,0,0,1,65.223,113.9Z" transform="translate(-396.887 81.004)" fill="rgba(72,72,72,0)" stroke="#fff" stroke-miterlimit="2.613" stroke-width="2"/>
        <g id="Group_7" data-name="Group 7">
          <path id="Path_17" data-name="Path 17" d="M173.391,153.289l.906.524c2.246,1.3,3.175,3.925,2.069,5.842l-7.811,13.532c-1.107,1.915-3.849,2.424-6.093,1.128l-.908-.523c-2.244-1.3-3.175-3.925-2.069-5.842l7.811-13.532C168.4,152.5,171.147,151.994,173.391,153.289Z" transform="translate(-484.502 -55.806)" fill="rgba(72,72,72,0)" stroke="#fff" stroke-miterlimit="2.613" stroke-width="2"/>
          <path id="Path_20" data-name="Path 20" d="M158.907,144.478l.906.524a4.684,4.684,0,0,1,1.771,6.36l-8.976,15.543a4.679,4.679,0,0,1-6.392,1.646l-.906-.524a4.681,4.681,0,0,1-1.771-6.358l8.976-15.543A4.683,4.683,0,0,1,158.907,144.478Z" transform="translate(-497.455 -62.837)" fill="rgba(72,72,72,0)" stroke="#fff" stroke-miterlimit="2.613" stroke-width="2"/>
          <path id="Path_19" data-name="Path 19" d="M163.973,147.4l.906.525a4.682,4.682,0,0,1,1.771,6.36l-8.974,15.542a4.682,4.682,0,0,1-6.392,1.648l-.908-.524a4.684,4.684,0,0,1-1.771-6.36l8.976-15.543A4.681,4.681,0,0,1,163.973,147.4Z" transform="translate(-493.376 -60.482)" fill="rgba(72,72,72,0)" stroke="#fff" stroke-miterlimit="2.613" stroke-width="2"/>
          <path id="Path_18" data-name="Path 18" d="M169.039,150.329l.906.525a4.677,4.677,0,0,1,1.769,6.358l-8.972,15.543a4.681,4.681,0,0,1-6.392,1.646l-.908-.522a4.685,4.685,0,0,1-1.769-6.362l8.974-15.542A4.681,4.681,0,0,1,169.039,150.329Z" transform="translate(-489.295 -58.126)" fill="rgba(72,72,72,0)" stroke="#fff" stroke-miterlimit="2.613" stroke-width="2"/>
        </g>
        <path id="Path_623" data-name="Path 623" d="M2.564,0H7.721a2.565,2.565,0,0,1,2.565,2.565V20.32a2.563,2.563,0,0,1-2.563,2.563H2.564A2.564,2.564,0,0,1,0,20.319V2.564A2.564,2.564,0,0,1,2.564,0Z" transform="translate(-382.032 112.648) rotate(-59.998)" fill="rgba(72,72,72,0)" stroke="#fff" stroke-width="2"/>
      </g>
      <path id="Path_622" data-name="Path 622" d="M182.922,191.328c0-2.957-.508-5.107-1.511-6.437a5.6,5.6,0,0,0-4.781-2.005,10.253,10.253,0,0,0-2.829.417,11.859,11.859,0,0,0-2.782,1.209V199.8a7.835,7.835,0,0,0,2.074.489,21.6,21.6,0,0,0,2.193.111q3.854,0,5.749-2.261c1.251-1.506,1.888-3.777,1.888-6.808m10.014-.184a19.559,19.559,0,0,1-1.151,6.845,15.164,15.164,0,0,1-3.014,5.089,13.074,13.074,0,0,1-4.394,3.184,12.9,12.9,0,0,1-5.26,1.082,15.291,15.291,0,0,1-4.406-.553,21.256,21.256,0,0,1-3.694-1.553V217.9H161.3V176.366h9.719v3.168a23.533,23.533,0,0,1,4.57-2.9,12.436,12.436,0,0,1,5.391-1.109,10.4,10.4,0,0,1,8.806,4.166Q192.935,183.86,192.935,191.144Zm-34.553-5.5h-.866a8.186,8.186,0,0,0-2-.323q-1.367-.111-2.293-.111a22.608,22.608,0,0,0-3.667.268,21.163,21.163,0,0,0-3.427.923v20.348H136.41V176.366h9.719v4.461a20.38,20.38,0,0,1,5.583-3.667,12.457,12.457,0,0,1,4.375-.906q.513,0,1.163.028c.432.018.809.045,1.132.084Z" transform="translate(-892.929 -344.784)" fill="#fff"/>
    </g>
    <g id="Group_586" data-name="Group 586" transform="translate(1)">
      <path id="Subtraction_1" data-name="Subtraction 1" d="M76.732,42.92a28.031,28.031,0,0,1-7.954-1.03,15.909,15.909,0,0,1-5.852-3.082,13,13,0,0,1-3.594-4.986,17.747,17.747,0,0,1-1.2-6.734,18.921,18.921,0,0,1,1.134-6.739,14.2,14.2,0,0,1,3.405-5.182,14.726,14.726,0,0,1,5.388-3.3,21.27,21.27,0,0,1,7.072-1.1,19.852,19.852,0,0,1,6.393.94,11.634,11.634,0,0,1,4.586,2.809,11.939,11.939,0,0,1,2.758,4.573,19.375,19.375,0,0,1,.916,6.215v3.409H67.827a7.092,7.092,0,0,0,2.684,5.467c1.634,1.256,4.076,1.893,7.257,1.893a16.2,16.2,0,0,0,5.886-1.107,18.656,18.656,0,0,0,4.51-2.384h1.066V40.4a35.477,35.477,0,0,1-6.132,1.92A31.723,31.723,0,0,1,76.732,42.92ZM74.358,16.865A6.975,6.975,0,0,0,69.8,18.324a6.305,6.305,0,0,0-2,4.684H80.241a6.835,6.835,0,0,0-1.49-4.6A5.674,5.674,0,0,0,74.358,16.865ZM109.2,42.7a16.233,16.233,0,0,1-4.4-.536,15.1,15.1,0,0,1-3.594-1.57l-.4,1.514h-9.2V0h9.595V14.889a23.282,23.282,0,0,1,4.514-2.9,12.2,12.2,0,0,1,5.32-1.109,11.613,11.613,0,0,1,5.021,1.039,9.884,9.884,0,0,1,3.718,3.117c2.034,2.764,3.065,6.621,3.065,11.462a20.52,20.52,0,0,1-.976,6.5,15.22,15.22,0,0,1-2.934,5.179,13.109,13.109,0,0,1-4.385,3.389A12.6,12.6,0,0,1,109.2,42.7ZM106.747,18.24a10.01,10.01,0,0,0-2.793.418,11.715,11.715,0,0,0-2.748,1.209V35.124a10.153,10.153,0,0,0,1.974.517,15.615,15.615,0,0,0,2.238.131A6.947,6.947,0,0,0,111.1,33.5c1.236-1.513,1.863-3.806,1.863-6.816a11.958,11.958,0,0,0-1.364-6.253C110.7,18.977,109.068,18.24,106.747,18.24ZM27.971,42.108H17.665L13.214,27.4l6.663-10.207,3.784,15.477,6.392-20.948h8.5l6.076,20.947,5.037-20.947h9.859L50.253,42.107H40.067L33.972,21.623l-6,20.485Z" transform="translate(-707.667 -169.259)" fill="#fff" stroke="rgba(0,0,0,0)" stroke-miterlimit="10" stroke-width="1"/>
      <path id="Path_625" data-name="Path 625" d="M364.284,197.176a8.8,8.8,0,0,1-4.221,7.592q-4.211,2.882-11.553,2.883a33.226,33.226,0,0,1-7.352-.757,28.038,28.038,0,0,1-5.312-1.682V197.2h.9c.489.342,1.052.719,1.69,1.126a18.081,18.081,0,0,0,2.725,1.313,21.832,21.832,0,0,0,3.436,1.06,17.671,17.671,0,0,0,4.109.454,10.682,10.682,0,0,0,4.25-.638,2.034,2.034,0,0,0,1.375-1.884,1.736,1.736,0,0,0-.812-1.606,10.442,10.442,0,0,0-3.086-.96c-.719-.168-1.7-.343-2.926-.528a33.22,33.22,0,0,1-3.372-.694,11.893,11.893,0,0,1-6.143-3.37,8.3,8.3,0,0,1-2-5.689q0-4.392,4.156-7.3t11.352-2.91a30.094,30.094,0,0,1,6.528.692,26.132,26.132,0,0,1,4.886,1.479v7.684h-.841a19.73,19.73,0,0,0-4.932-2.429,17.6,17.6,0,0,0-5.613-.933,10.694,10.694,0,0,0-3.972.655c-1.072.425-1.608,1.045-1.608,1.839a1.98,1.98,0,0,0,.729,1.653,10.04,10.04,0,0,0,3.437,1.137c1,.193,2.059.387,3.2.58s2.3.425,3.452.712a10.857,10.857,0,0,1,5.682,3.149,8,8,0,0,1,1.838,5.375m-37.843-5.791c0-2.957-.509-5.107-1.514-6.437a5.628,5.628,0,0,0-4.794-2.005,10.29,10.29,0,0,0-2.836.417,11.809,11.809,0,0,0-2.789,1.209v15.286a7.941,7.941,0,0,0,2.077.491c.74.074,1.477.109,2.2.109q3.865,0,5.762-2.263C325.8,196.686,326.442,194.415,326.442,191.385Zm10.039-.184a19.482,19.482,0,0,1-1.154,6.845,15.2,15.2,0,0,1-3.02,5.089,13.138,13.138,0,0,1-4.406,3.186,12.982,12.982,0,0,1-5.273,1.08,15.22,15.22,0,0,1-4.416-.554,21.206,21.206,0,0,1-3.7-1.551v12.662h-9.744V176.421h9.744v3.169a23.647,23.647,0,0,1,4.581-2.9,12.519,12.519,0,0,1,5.4-1.107,10.44,10.44,0,0,1,8.83,4.166Q336.48,183.916,336.481,191.2Zm-43.155.184c0-2.957-.508-5.107-1.514-6.437a5.624,5.624,0,0,0-4.794-2.005,10.308,10.308,0,0,0-2.836.417,11.839,11.839,0,0,0-2.789,1.209v15.286a7.938,7.938,0,0,0,2.079.491c.739.074,1.477.109,2.2.109q3.867,0,5.764-2.263C292.69,196.686,293.326,194.415,293.326,191.385Zm10.041-.184a19.482,19.482,0,0,1-1.156,6.845,15.175,15.175,0,0,1-3.02,5.089,12.855,12.855,0,0,1-9.679,4.267,15.244,15.244,0,0,1-4.416-.554,21.261,21.261,0,0,1-3.7-1.551v12.662h-9.744V176.421h9.744v3.169a23.659,23.659,0,0,1,4.583-2.9,12.511,12.511,0,0,1,5.4-1.107,10.444,10.444,0,0,1,8.831,4.166Q303.366,183.916,303.367,191.2Zm-44.707,12.384c-.518.4-1.173.879-1.948,1.442a14.379,14.379,0,0,1-2.189,1.32,13.724,13.724,0,0,1-2.973.962,16.8,16.8,0,0,1-3.382.313,10.368,10.368,0,0,1-7.26-2.677,8.893,8.893,0,0,1-2.916-6.846,9.236,9.236,0,0,1,1.486-5.439,10.033,10.033,0,0,1,4.221-3.335,24.18,24.18,0,0,1,6.714-1.727c2.67-.342,5.441-.6,8.3-.757v-.166a3.491,3.491,0,0,0-2.059-3.473,14.888,14.888,0,0,0-6.059-.962,17.367,17.367,0,0,0-5.136.851c-1.829.573-3.131,1.005-3.925,1.31h-.9v-7.332c1.027-.268,2.705-.591,5.024-.962a44.2,44.2,0,0,1,6.963-.554q8.315,0,12,2.56c2.464,1.709,3.694,4.377,3.694,8.026v20.671h-9.662Zm0-4.7v-6.337c-1.31.112-2.744.26-4.277.446a21.287,21.287,0,0,0-3.491.663,4.809,4.809,0,0,0-2.226,1.34,3.387,3.387,0,0,0-.776,2.318,5.912,5.912,0,0,0,.168,1.543,2.326,2.326,0,0,0,.811,1.136,3.873,3.873,0,0,0,1.489.794,10.09,10.09,0,0,0,2.705.26,8.258,8.258,0,0,0,2.965-.593A9.306,9.306,0,0,0,258.659,198.884Z" transform="translate(-823.35 -333.885)" fill="#fff"/>
    </g>
  </g>
</svg>
