<svg xmlns="http://www.w3.org/2000/svg" width="50.322" height="50.322" viewBox="0 0 50.322 50.322">
  <g id="small-logo" transform="translate(-480.375 -453.036)">
    <circle id="Ellipse_1" data-name="Ellipse 1" cx="25.161" cy="25.161" r="25.161" transform="translate(480.375 453.036)" fill="#f70"/>
    <g id="Ellipse_2" data-name="Ellipse 2" transform="translate(486.816 459.477)">
      <circle id="Ellipse_1-2" data-name="Ellipse 1" cx="18.72" cy="18.72" r="18.72" fill="#f70"/>
      <circle id="Ellipse_2-2" data-name="Ellipse 2" cx="18.317" cy="18.317" r="18.317" transform="translate(0.403 0.403)" fill="none" stroke="#fff" stroke-width="2" stroke-dasharray="5"/>
    </g>
    <path id="Path_1" data-name="Path 1" d="M532.065,483.537a4.127,4.127,0,0,1,.293.838,7.89,7.89,0,0,1,.011,1.194c-.014.558-.156.706-.72.711-1.057.01-2.114,0-3.171,0-.135,0-.27.013-.366.017.294.757.573,1.5.886,2.239.041.093.252.156.385.159.71.015,1.421.006,2.132.008.8,0,.874.072.876.851,0,.4-.009.8,0,1.2.014.479-.2.7-.685.692-.864-.012-1.731,0-2.611,0-.737,3.652-3.263,5.2-6.728,5.731.814.917,1.606,1.778,2.363,2.669,1.715,2.019,3.407,4.059,5.124,6.079a.633.633,0,0,1,.072.891.644.644,0,0,1-.149.128h-3.642c-.142-.149-.291-.292-.426-.448-2.27-2.619-4.516-5.26-6.815-7.853-1.4-1.58-1.439-1.547-1.406-3.637.01-.6.165-.751.784-.754.659,0,1.319.02,1.977-.006a6.359,6.359,0,0,0,3.686-1.055,3.116,3.116,0,0,0,1.171-1.744h-6.783c-.725,0-.832-.112-.834-.849v-1.04c0-.758.082-.843.833-.846q2.965,0,5.93,0h.537l.092-.2a5.9,5.9,0,0,0-1.2-1,6.721,6.721,0,0,0-2.067-.615c-1.064-.117-2.146-.081-3.221-.1-.816-.013-.907-.093-.909-.886,0-.537-.034-1.078.014-1.611a2.81,2.81,0,0,1,.31-.765Z" transform="translate(-19.204 -15.788)" fill="#fff"/>
  </g>
</svg>
