<svg xmlns="http://www.w3.org/2000/svg" width="115.154" height="117.057" viewBox="0 0 115.154 117.057">
  <g id="small-logo" transform="translate(790.911 220.009)">
    <g id="Group_8" data-name="Group 8" transform="translate(-393 -300)">
      <path id="Union_2" data-name="Union 2" d="M65.223,113.9,4.4,79.109A8.786,8.786,0,0,1,1.148,67.158L19.821,34.512l-2.745-1.585a2.565,2.565,0,0,1-.939-3.5l2.578-4.466a2.566,2.566,0,0,1,3.5-.939l2.709,1.564L35.934,6.341A8.784,8.784,0,0,1,47.885,3.083l2.706,1.548,1.355-2.346A4.683,4.683,0,0,1,58.34.637l.906.523a4.685,4.685,0,0,1,1.77,6.36l-1.334,2.31.076.044,1.334-2.309a4.681,4.681,0,0,1,6.392-1.648l.906.526A4.68,4.68,0,0,1,70.162,12.8L68.85,15.075l.076.043,1.312-2.273A4.682,4.682,0,0,1,76.631,11.2l.906.526a4.677,4.677,0,0,1,1.769,6.358l-1.291,2.236.076.044,1.589-2.754c1.106-1.915,3.85-2.423,6.095-1.129l.906.524c2.245,1.3,3.175,3.925,2.068,5.842L87.183,25.56,108.7,37.869a8.784,8.784,0,0,1,3.254,11.951l-34.784,60.82a8.782,8.782,0,0,1-7.629,4.4A8.684,8.684,0,0,1,65.223,113.9Z" transform="translate(-396.887 81.004)" fill="rgba(72,72,72,0)" stroke="#fff" stroke-miterlimit="2.613" stroke-width="2"/>
      <g id="Group_7" data-name="Group 7">
        <path id="Path_17" data-name="Path 17" d="M173.391,153.289l.906.524c2.246,1.3,3.175,3.925,2.069,5.842l-7.811,13.532c-1.107,1.915-3.849,2.424-6.093,1.128l-.908-.523c-2.244-1.3-3.175-3.925-2.069-5.842l7.811-13.532C168.4,152.5,171.147,151.994,173.391,153.289Z" transform="translate(-484.502 -55.806)" fill="rgba(72,72,72,0)" stroke="#fff" stroke-miterlimit="2.613" stroke-width="2"/>
        <path id="Path_20" data-name="Path 20" d="M158.907,144.478l.906.524a4.684,4.684,0,0,1,1.771,6.36l-8.976,15.543a4.679,4.679,0,0,1-6.392,1.646l-.906-.524a4.681,4.681,0,0,1-1.771-6.358l8.976-15.543A4.683,4.683,0,0,1,158.907,144.478Z" transform="translate(-497.455 -62.837)" fill="rgba(72,72,72,0)" stroke="#fff" stroke-miterlimit="2.613" stroke-width="2"/>
        <path id="Path_19" data-name="Path 19" d="M163.973,147.4l.906.525a4.682,4.682,0,0,1,1.771,6.36l-8.974,15.542a4.682,4.682,0,0,1-6.392,1.648l-.908-.524a4.684,4.684,0,0,1-1.771-6.36l8.976-15.543A4.681,4.681,0,0,1,163.973,147.4Z" transform="translate(-493.376 -60.482)" fill="rgba(72,72,72,0)" stroke="#fff" stroke-miterlimit="2.613" stroke-width="2"/>
        <path id="Path_18" data-name="Path 18" d="M169.039,150.329l.906.525a4.677,4.677,0,0,1,1.769,6.358l-8.972,15.543a4.681,4.681,0,0,1-6.392,1.646l-.908-.522a4.685,4.685,0,0,1-1.769-6.362l8.974-15.542A4.681,4.681,0,0,1,169.039,150.329Z" transform="translate(-489.295 -58.126)" fill="rgba(72,72,72,0)" stroke="#fff" stroke-miterlimit="2.613" stroke-width="2"/>
      </g>
      <path id="Path_623" data-name="Path 623" d="M2.564,0H7.721a2.565,2.565,0,0,1,2.565,2.565V20.32a2.563,2.563,0,0,1-2.563,2.563H2.564A2.564,2.564,0,0,1,0,20.319V2.564A2.564,2.564,0,0,1,2.564,0Z" transform="translate(-382.032 112.648) rotate(-59.998)" fill="rgba(72,72,72,0)" stroke="#fff" stroke-width="2"/>
    </g>
    <path id="Path_622" data-name="Path 622" d="M182.922,191.328c0-2.957-.508-5.107-1.511-6.437a5.6,5.6,0,0,0-4.781-2.005,10.253,10.253,0,0,0-2.829.417,11.859,11.859,0,0,0-2.782,1.209V199.8a7.835,7.835,0,0,0,2.074.489,21.6,21.6,0,0,0,2.193.111q3.854,0,5.749-2.261c1.251-1.506,1.888-3.777,1.888-6.808m10.014-.184a19.559,19.559,0,0,1-1.151,6.845,15.164,15.164,0,0,1-3.014,5.089,13.074,13.074,0,0,1-4.394,3.184,12.9,12.9,0,0,1-5.26,1.082,15.291,15.291,0,0,1-4.406-.553,21.256,21.256,0,0,1-3.694-1.553V217.9H161.3V176.366h9.719v3.168a23.533,23.533,0,0,1,4.57-2.9,12.436,12.436,0,0,1,5.391-1.109,10.4,10.4,0,0,1,8.806,4.166Q192.935,183.86,192.935,191.144Zm-34.553-5.5h-.866a8.186,8.186,0,0,0-2-.323q-1.367-.111-2.293-.111a22.608,22.608,0,0,0-3.667.268,21.163,21.163,0,0,0-3.427.923v20.348H136.41V176.366h9.719v4.461a20.38,20.38,0,0,1,5.583-3.667,12.457,12.457,0,0,1,4.375-.906q.513,0,1.163.028c.432.018.809.045,1.132.084Z" transform="translate(-892.929 -344.784)" fill="#fff"/>
  </g>
</svg>
